<?xml version="1.0" encoding="utf-8"?>
<!-- Generator: Adobe Illustrator 16.0.0, SVG Export Plug-In . SVG Version: 6.00 Build 0)  -->
<!DOCTYPE svg PUBLIC "-//W3C//DTD SVG 1.1//EN" "http://www.w3.org/Graphics/SVG/1.1/DTD/svg11.dtd">
<svg version="1.1" id="Layer_1" xmlns="http://www.w3.org/2000/svg" xmlns:xlink="http://www.w3.org/1999/xlink" x="0px" y="0px"
	 width="30px" height="30px" viewBox="0 0 30 30" enable-background="new 0 0 30 30" xml:space="preserve">
<path fill="#3D683B" d="M14.869-0.025c-8.227,0-14.894,6.667-14.894,14.893c0,8.227,6.667,14.895,14.894,14.895
	c8.226,0,14.895-6.668,14.895-14.895C29.763,6.642,23.094-0.025,14.869-0.025 M18.643,14.874h-2.47v8.806h-3.659v-8.806h-1.741
	v-3.109h1.741V9.752c0-1.438,0.682-3.691,3.693-3.691l2.71,0.011v3.018H16.95c-0.321,0-0.776,0.162-0.776,0.848v1.83h2.788
	L18.643,14.874z"/>
</svg>
