<?xml version="1.0" encoding="utf-8"?>
<!-- Generator: Adobe Illustrator 16.0.0, SVG Export Plug-In . SVG Version: 6.00 Build 0)  -->
<!DOCTYPE svg PUBLIC "-//W3C//DTD SVG 1.1//EN" "http://www.w3.org/Graphics/SVG/1.1/DTD/svg11.dtd">
<svg version="1.1" id="Layer_1" xmlns="http://www.w3.org/2000/svg" xmlns:xlink="http://www.w3.org/1999/xlink" x="0px" y="0px"
	 width="30px" height="30px" viewBox="0 0 30 30" enable-background="new 0 0 30 30" xml:space="preserve">
<g>
	<path fill="#3D683B" d="M15,0.273c-8.116,0-14.696,6.595-14.696,14.729c0,8.13,6.58,14.724,14.696,14.724
		c8.117,0,14.698-6.594,14.698-14.724C29.698,6.868,23.117,0.273,15,0.273"/>
	<path fill="#FFFFFF" d="M11.013,7.76c0,1.005-0.708,1.819-1.814,1.819c-1.063,0-1.771-0.814-1.75-1.819
		C7.427,6.707,8.135,5.916,9.22,5.916S10.994,6.707,11.013,7.76 M7.54,11.015h3.363v11.709H7.54V11.015z"/>
	<path fill="#FFFFFF" d="M13.605,14.751c0-1.459-0.045-2.705-0.091-3.736h2.926l0.152,1.605h0.066
		c0.445-0.743,1.549-1.868,3.344-1.868c2.213,0,3.877,1.58,3.877,5.028v6.943h-3.367v-6.489c0-1.509-0.487-2.535-1.706-2.535
		c-0.928,0-1.483,0.69-1.702,1.365c-0.092,0.213-0.135,0.574-0.135,0.905v6.754h-3.364V14.751z"/>
</g>
</svg>
