<?xml version="1.0" encoding="utf-8"?>
<!-- Generator: Adobe Illustrator 16.0.0, SVG Export Plug-In . SVG Version: 6.00 Build 0)  -->
<!DOCTYPE svg PUBLIC "-//W3C//DTD SVG 1.1//EN" "http://www.w3.org/Graphics/SVG/1.1/DTD/svg11.dtd">
<svg version="1.1" id="Layer_1" xmlns="http://www.w3.org/2000/svg" xmlns:xlink="http://www.w3.org/1999/xlink" x="0px" y="0px"
	 width="324.827px" height="117.241px" viewBox="0 0 324.827 117.241" enable-background="new 0 0 324.827 117.241"
	 xml:space="preserve">
<g>
	<path fill="#DB8F1B" d="M34.488,83.93l9.08-14.247h53.994c0.782-3.561,1.21-7.26,1.21-11.062c0-27.634-21.8-50.035-48.691-50.035
		c-17.933,0-33.59,9.968-42.039,24.799h57.297l-9.08,14.247H2.583c-0.773,3.535-1.193,7.212-1.193,10.989
		c0,27.633,21.799,50.036,48.69,50.036c17.902,0,33.538-9.938,41.998-24.727H34.488z M25.208,51.305h58.882L75.009,65.55H16.127
		L25.208,51.305z"/>
	<polygon fill="#386639" points="138.106,29.059 138.106,37.466 121.745,37.466 121.745,45.898 134.014,45.898 134.014,54.305 
		121.745,54.305 121.745,62.712 138.106,62.712 138.106,71.148 121.745,71.148 113.538,71.148 113.538,29.059 	"/>
	<polygon fill="#386639" points="166.488,52.32 166.488,29.061 174.693,29.061 174.693,71.932 150.125,47.859 150.125,71.146 
		141.919,71.146 141.919,28.274 	"/>
	<polygon fill="#386639" points="203.33,29.059 203.33,37.466 186.969,37.466 186.969,45.898 199.238,45.898 199.238,54.305 
		186.969,54.305 186.969,62.712 203.33,62.712 203.33,71.148 186.969,71.148 178.761,71.148 178.761,29.059 	"/>
	<path fill="#386639" d="M207.116,29.005h13.312c3.939,0,7.826,1.411,10.648,4.308c2.819,2.9,3.961,5.615,3.961,9.661v1.308
		c0,3.135-0.863,5.432-2.59,7.936c-1.728,2.506-3.176,3.236-5.869,4.283l9.248,14.646h-10.012l-10.467-16.448v16.448h-8.206
		L207.116,29.005z M221.194,49.291c1.701,0,2.564-0.44,3.758-1.667c1.193-1.229,1.627-2.641,1.627-4.39
		c0-1.722-0.434-2.871-1.627-4.123c-1.193-1.255-3.328-1.698-5.028-1.698h-4.602v11.854L221.194,49.291z"/>
	<path fill="#386639" d="M259.331,28.927c2.845,0,5.514,0.55,8.029,1.672c2.514,1.121,4.725,2.639,6.63,4.543l-5.844,6.006
		c-2.466-2.508-5.387-3.758-8.766-3.758c-3.431,0-6.354,1.25-8.766,3.758c-2.416,2.507-3.633,5.51-3.633,9.009
		c0,3.522,1.217,6.527,3.633,9.006c2.412,2.478,5.335,3.733,8.766,3.733c2.692,0,5.107-0.783,7.216-2.375
		c2.107-1.592,3.607-3.63,4.471-6.112h-11.714v-8.482h11.714h4.804h3.76c0.28,1.333,0.405,2.742,0.405,4.23
		c0,5.847-2.032,10.86-6.098,15.013c-4.064,4.149-8.942,6.238-14.633,6.238c-5.694,0-10.57-2.089-14.608-6.238
		c-4.042-4.152-6.075-9.166-6.075-15.013c0-5.849,2.033-10.862,6.075-15.039c4.038-4.18,8.914-6.268,14.608-6.268L259.331,28.927z"
		/>
	<path fill="#386639" d="M317.338,35.115c4.066,4.179,6.099,9.191,6.099,15.041c0,5.847-2.032,10.86-6.099,15.011
		c-4.065,4.151-8.943,6.24-14.635,6.24c-5.69,0-10.568-2.089-14.61-6.24c-4.038-4.15-6.07-9.164-6.07-15.011
		c0-5.85,2.032-10.862,6.07-15.041c4.042-4.178,8.92-6.266,14.61-6.266C308.395,28.85,313.272,30.938,317.338,35.115
		 M293.938,41.093c-2.413,2.51-3.633,5.513-3.633,9.01c0,3.523,1.22,6.527,3.633,9.008c2.413,2.479,5.336,3.735,8.766,3.735
		c3.404,0,6.327-1.256,8.766-3.735c2.439-2.48,3.66-5.484,3.66-9.008c0-3.497-1.221-6.5-3.66-9.01
		c-2.438-2.505-5.361-3.759-8.766-3.759C299.273,37.334,296.351,38.588,293.938,41.093"/>
	<polygon fill="#386639" points="113.427,79.462 114.761,79.462 116.863,84.602 116.901,84.602 118.982,79.462 120.317,79.462 
		120.317,86.253 119.421,86.253 119.421,80.671 119.402,80.671 117.172,86.253 116.573,86.253 114.341,80.671 114.323,80.671 
		114.323,86.253 113.427,86.253 	"/>
	<polygon fill="#386639" points="122.511,79.462 126.778,79.462 126.778,80.324 123.407,80.324 123.407,82.35 126.545,82.35 
		126.545,83.212 123.407,83.212 123.407,85.392 126.946,85.392 126.946,86.253 122.511,86.253 	"/>
	<path fill="#386639" d="M130.84,79.462h0.894v4.854c0,0.427-0.064,0.776-0.194,1.051c-0.13,0.273-0.295,0.486-0.49,0.641
		c-0.198,0.157-0.406,0.265-0.63,0.331c-0.224,0.06-0.431,0.088-0.616,0.088c-0.468,0-0.86-0.122-1.182-0.368
		c-0.321-0.249-0.525-0.62-0.613-1.12l0.879-0.201c0.049,0.258,0.151,0.459,0.307,0.604c0.157,0.147,0.357,0.219,0.608,0.219
		c0.223,0,0.403-0.04,0.536-0.132c0.135-0.091,0.239-0.207,0.312-0.351c0.075-0.142,0.125-0.306,0.149-0.492
		c0.026-0.188,0.039-0.377,0.039-0.568V79.462z"/>
	<path fill="#386639" d="M136.869,86.427c-0.503,0-0.967-0.092-1.392-0.273c-0.423-0.18-0.785-0.432-1.087-0.752
		c-0.301-0.321-0.538-0.698-0.71-1.136c-0.17-0.431-0.256-0.902-0.256-1.409c0-0.503,0.085-0.972,0.256-1.41
		c0.172-0.433,0.409-0.812,0.71-1.131c0.302-0.318,0.664-0.57,1.087-0.756c0.424-0.179,0.888-0.271,1.392-0.271
		c0.504,0,0.969,0.092,1.39,0.271c0.425,0.186,0.788,0.438,1.09,0.756c0.3,0.319,0.538,0.698,0.708,1.131
		c0.172,0.438,0.256,0.907,0.256,1.41c0,0.507-0.084,0.979-0.256,1.409c-0.171,0.438-0.408,0.814-0.708,1.136
		c-0.302,0.32-0.665,0.572-1.09,0.752C137.838,86.335,137.374,86.427,136.869,86.427 M136.869,85.561
		c0.379,0,0.722-0.071,1.026-0.213c0.306-0.145,0.566-0.337,0.785-0.579c0.217-0.245,0.386-0.532,0.503-0.858
		c0.119-0.33,0.178-0.679,0.178-1.054c0-0.368-0.06-0.72-0.178-1.047c-0.118-0.331-0.287-0.616-0.503-0.859
		c-0.219-0.245-0.479-0.44-0.785-0.582c-0.304-0.145-0.647-0.214-1.026-0.214c-0.379,0-0.721,0.069-1.026,0.214
		c-0.304,0.142-0.566,0.337-0.784,0.582c-0.219,0.243-0.386,0.528-0.506,0.859c-0.118,0.327-0.175,0.679-0.175,1.047
		c0,0.375,0.058,0.724,0.175,1.054c0.12,0.326,0.287,0.613,0.506,0.858c0.218,0.242,0.48,0.435,0.784,0.579
		C136.148,85.489,136.49,85.561,136.869,85.561"/>
	<path fill="#386639" d="M142.164,79.462h2.324c0.423,0,0.771,0.061,1.045,0.18c0.274,0.113,0.491,0.268,0.648,0.447
		c0.161,0.185,0.27,0.387,0.333,0.616c0.062,0.227,0.093,0.444,0.093,0.653c0,0.218-0.038,0.432-0.111,0.633
		c-0.076,0.201-0.184,0.381-0.323,0.548c-0.14,0.16-0.311,0.298-0.512,0.411c-0.204,0.111-0.43,0.18-0.679,0.205l1.878,3.098h-1.121
		l-1.682-2.994h-0.999v2.994h-0.894V79.462z M143.058,82.454h1.177c0.174,0,0.347-0.013,0.519-0.041
		c0.171-0.031,0.323-0.081,0.456-0.161c0.135-0.075,0.242-0.186,0.323-0.329c0.082-0.146,0.121-0.331,0.121-0.564
		c0-0.226-0.039-0.414-0.121-0.556c-0.081-0.146-0.188-0.258-0.323-0.334c-0.133-0.075-0.285-0.129-0.456-0.157
		c-0.172-0.031-0.345-0.044-0.519-0.044h-1.177V82.454z"/>
	<polygon fill="#386639" points="152.964,80.324 150.835,80.324 150.835,79.462 155.988,79.462 155.988,80.324 153.86,80.324 
		153.86,86.253 152.964,86.253 	"/>
	<polygon fill="#386639" points="157.5,79.462 161.768,79.462 161.768,80.324 158.397,80.324 158.397,82.35 161.535,82.35 
		161.535,83.212 158.397,83.212 158.397,85.392 161.936,85.392 161.936,86.253 157.5,86.253 	"/>
	<path fill="#386639" d="M168.367,80.928c-0.185-0.247-0.424-0.44-0.708-0.572c-0.288-0.136-0.581-0.201-0.888-0.201
		c-0.374,0-0.71,0.069-1.013,0.214c-0.303,0.142-0.56,0.34-0.774,0.592c-0.214,0.249-0.383,0.54-0.502,0.874
		c-0.116,0.337-0.174,0.695-0.174,1.078c0,0.363,0.055,0.7,0.165,1.02c0.117,0.321,0.276,0.602,0.488,0.847
		c0.209,0.242,0.469,0.432,0.774,0.573c0.305,0.144,0.651,0.213,1.036,0.213c0.379,0,0.713-0.081,1-0.241
		c0.286-0.157,0.528-0.385,0.727-0.67l0.756,0.584c-0.049,0.072-0.138,0.17-0.26,0.302c-0.124,0.133-0.291,0.261-0.496,0.395
		c-0.204,0.132-0.453,0.247-0.741,0.345c-0.291,0.101-0.625,0.148-1.004,0.148c-0.523,0-0.995-0.101-1.416-0.306
		c-0.417-0.204-0.776-0.475-1.073-0.808c-0.295-0.331-0.521-0.708-0.677-1.127c-0.155-0.418-0.233-0.843-0.233-1.274
		c0-0.521,0.083-1.005,0.253-1.449c0.167-0.443,0.403-0.83,0.703-1.155c0.303-0.319,0.664-0.572,1.087-0.751
		c0.425-0.179,0.891-0.268,1.401-0.268c0.437,0,0.863,0.085,1.285,0.261c0.421,0.17,0.764,0.435,1.03,0.796L168.367,80.928z"/>
	<polygon fill="#386639" points="170.899,79.462 172.074,79.462 175.715,85.046 175.735,85.046 175.735,79.462 176.63,79.462 
		176.63,86.253 175.492,86.253 171.812,80.671 171.794,80.671 171.794,86.253 170.899,86.253 	"/>
	<path fill="#386639" d="M181.924,86.427c-0.503,0-0.967-0.092-1.391-0.273c-0.424-0.18-0.787-0.432-1.088-0.752
		c-0.302-0.321-0.537-0.698-0.71-1.136c-0.17-0.431-0.255-0.902-0.255-1.409c0-0.503,0.085-0.972,0.255-1.41
		c0.173-0.433,0.409-0.812,0.71-1.131c0.301-0.318,0.664-0.57,1.088-0.756c0.423-0.179,0.887-0.271,1.391-0.271
		s0.969,0.092,1.392,0.271c0.422,0.186,0.785,0.438,1.088,0.756c0.302,0.319,0.537,0.698,0.709,1.131
		c0.171,0.438,0.257,0.907,0.257,1.41c0,0.507-0.086,0.979-0.257,1.409c-0.172,0.438-0.407,0.814-0.709,1.136
		c-0.303,0.32-0.666,0.572-1.088,0.752C182.893,86.335,182.427,86.427,181.924,86.427 M181.924,85.561
		c0.378,0,0.723-0.071,1.027-0.213c0.305-0.145,0.564-0.337,0.783-0.579c0.218-0.245,0.386-0.532,0.504-0.858
		c0.119-0.33,0.179-0.679,0.179-1.054c0-0.368-0.06-0.72-0.179-1.047c-0.118-0.331-0.286-0.616-0.504-0.859
		c-0.219-0.245-0.479-0.44-0.783-0.582c-0.305-0.145-0.649-0.214-1.027-0.214c-0.379,0-0.721,0.069-1.027,0.214
		c-0.303,0.142-0.566,0.337-0.784,0.582c-0.217,0.243-0.387,0.528-0.505,0.859c-0.119,0.327-0.177,0.679-0.177,1.047
		c0,0.375,0.058,0.724,0.177,1.054c0.118,0.326,0.288,0.613,0.505,0.858c0.217,0.242,0.481,0.435,0.784,0.579
		C181.203,85.489,181.544,85.561,181.924,85.561"/>
	<polygon fill="#386639" points="187.216,79.462 188.113,79.462 188.113,85.392 191.146,85.392 191.146,86.253 187.216,86.253 	"/>
	<path fill="#386639" d="M195.657,86.427c-0.504,0-0.968-0.092-1.39-0.273c-0.426-0.18-0.787-0.432-1.09-0.752
		c-0.302-0.321-0.539-0.698-0.709-1.136c-0.173-0.431-0.257-0.902-0.257-1.409c0-0.503,0.084-0.972,0.257-1.41
		c0.17-0.433,0.407-0.812,0.709-1.131c0.303-0.318,0.664-0.57,1.09-0.756c0.422-0.179,0.886-0.271,1.39-0.271
		s0.967,0.092,1.391,0.271c0.424,0.186,0.785,0.438,1.088,0.756c0.3,0.319,0.538,0.698,0.711,1.131
		c0.169,0.438,0.254,0.907,0.254,1.41c0,0.507-0.085,0.979-0.254,1.409c-0.173,0.438-0.411,0.814-0.711,1.136
		c-0.303,0.32-0.664,0.572-1.088,0.752C196.624,86.335,196.161,86.427,195.657,86.427 M195.657,85.561
		c0.379,0,0.722-0.071,1.025-0.213c0.306-0.145,0.565-0.337,0.786-0.579c0.216-0.245,0.386-0.532,0.503-0.858
		c0.118-0.33,0.178-0.679,0.178-1.054c0-0.368-0.06-0.72-0.178-1.047c-0.117-0.331-0.287-0.616-0.503-0.859
		c-0.221-0.245-0.48-0.44-0.786-0.582c-0.304-0.145-0.646-0.214-1.025-0.214c-0.38,0-0.723,0.069-1.027,0.214
		c-0.305,0.142-0.564,0.337-0.783,0.582c-0.219,0.243-0.388,0.528-0.504,0.859c-0.119,0.327-0.178,0.679-0.178,1.047
		c0,0.375,0.059,0.724,0.178,1.054c0.116,0.326,0.285,0.613,0.504,0.858c0.219,0.242,0.479,0.435,0.783,0.579
		C194.935,85.489,195.277,85.561,195.657,85.561"/>
	<path fill="#386639" d="M206.58,82.454v3.35c-0.161,0.104-0.345,0.191-0.55,0.268c-0.207,0.078-0.42,0.144-0.643,0.197
		c-0.22,0.054-0.442,0.096-0.671,0.117c-0.227,0.028-0.44,0.041-0.64,0.041c-0.56,0-1.061-0.098-1.497-0.286
		c-0.438-0.192-0.811-0.453-1.111-0.777c-0.303-0.327-0.532-0.708-0.691-1.135c-0.159-0.438-0.238-0.892-0.238-1.372
		c0-0.503,0.086-0.972,0.257-1.41c0.172-0.433,0.407-0.812,0.71-1.131c0.3-0.318,0.663-0.57,1.089-0.756
		c0.422-0.179,0.886-0.271,1.39-0.271c0.61,0,1.107,0.075,1.493,0.236c0.387,0.154,0.71,0.371,0.972,0.645l-0.635,0.704
		c-0.274-0.27-0.565-0.459-0.868-0.562c-0.306-0.107-0.626-0.16-0.962-0.16c-0.38,0-0.723,0.072-1.027,0.217
		c-0.306,0.145-0.566,0.337-0.783,0.579c-0.22,0.246-0.387,0.531-0.506,0.862c-0.117,0.327-0.178,0.679-0.178,1.047
		c0,0.383,0.068,0.742,0.198,1.069c0.13,0.33,0.311,0.62,0.541,0.859c0.229,0.245,0.501,0.435,0.813,0.572
		c0.309,0.138,0.648,0.207,1.016,0.207c0.318,0,0.618-0.031,0.901-0.094c0.283-0.058,0.523-0.147,0.725-0.261v-1.891h-1.467v-0.865
		H206.58z"/>
	<path fill="#386639" d="M209.578,77.695h1.193l-1.39,1.38h-0.777L209.578,77.695z M208.773,79.462h0.896v6.791h-0.896V79.462z"/>
	<path fill="#386639" d="M214.001,79.462h0.813l2.829,6.791h-1.046l-0.663-1.68h-3.146l-0.654,1.68h-1.045L214.001,79.462z
		 M215.607,83.769l-1.233-3.117h-0.019l-1.248,3.117H215.607z"/>
	<polygon fill="#386639" points="219.426,87.521 218.66,87.521 219.305,85.159 220.202,85.159 	"/>
	<polygon fill="#386639" points="225.308,79.462 226.643,79.462 228.742,84.602 228.78,84.602 230.859,79.462 232.195,79.462 
		232.195,86.253 231.3,86.253 231.3,80.671 231.282,80.671 229.051,86.253 228.452,86.253 226.223,80.671 226.204,80.671 
		226.204,86.253 225.308,86.253 	"/>
	<path fill="#386639" d="M236.464,79.462h0.813l2.828,6.791h-1.048l-0.662-1.68h-3.146l-0.653,1.68h-1.045L236.464,79.462z
		 M238.07,83.769l-1.234-3.117h-0.018l-1.251,3.117H238.07z"/>
	<polygon fill="#386639" points="242.393,83.356 239.89,79.462 241.039,79.462 242.841,82.447 244.699,79.462 245.791,79.462 
		243.287,83.356 243.287,86.253 242.393,86.253 	"/>
	<path fill="#386639" d="M250.143,86.427c-0.506,0-0.97-0.092-1.392-0.273c-0.425-0.18-0.787-0.432-1.088-0.752
		c-0.302-0.321-0.537-0.698-0.711-1.136c-0.17-0.431-0.255-0.902-0.255-1.409c0-0.503,0.085-0.972,0.255-1.41
		c0.174-0.433,0.409-0.812,0.711-1.131c0.301-0.318,0.663-0.57,1.088-0.756c0.422-0.179,0.886-0.271,1.392-0.271
		c0.504,0,0.966,0.092,1.39,0.271c0.424,0.186,0.786,0.438,1.088,0.756c0.303,0.319,0.539,0.698,0.71,1.131
		c0.171,0.438,0.257,0.907,0.257,1.41c0,0.507-0.086,0.979-0.257,1.409c-0.171,0.438-0.407,0.814-0.71,1.136
		c-0.302,0.32-0.664,0.572-1.088,0.752C251.108,86.335,250.646,86.427,250.143,86.427 M250.143,85.561
		c0.378,0,0.721-0.071,1.026-0.213c0.303-0.145,0.566-0.337,0.783-0.579c0.218-0.245,0.387-0.532,0.505-0.858
		c0.116-0.33,0.177-0.679,0.177-1.054c0-0.368-0.061-0.72-0.177-1.047c-0.118-0.331-0.287-0.616-0.505-0.859
		c-0.217-0.245-0.48-0.44-0.783-0.582c-0.306-0.145-0.648-0.214-1.026-0.214c-0.38,0-0.724,0.069-1.027,0.214
		c-0.307,0.142-0.566,0.337-0.785,0.582c-0.218,0.243-0.385,0.528-0.504,0.859c-0.119,0.327-0.178,0.679-0.178,1.047
		c0,0.375,0.059,0.724,0.178,1.054c0.119,0.326,0.286,0.613,0.504,0.858c0.219,0.242,0.479,0.435,0.785,0.579
		C249.419,85.489,249.763,85.561,250.143,85.561"/>
	<path fill="#386639" d="M255.436,79.462h2.324c0.425,0,0.772,0.061,1.047,0.18c0.272,0.113,0.489,0.268,0.648,0.447
		c0.159,0.185,0.27,0.387,0.332,0.616c0.061,0.227,0.093,0.444,0.093,0.653c0,0.218-0.038,0.432-0.112,0.633
		s-0.184,0.381-0.322,0.548c-0.14,0.16-0.31,0.298-0.512,0.411c-0.204,0.111-0.432,0.18-0.679,0.205l1.876,3.098h-1.12l-1.681-2.994
		h-0.999v2.994h-0.896V79.462z M256.331,82.454h1.178c0.174,0,0.345-0.013,0.519-0.041c0.17-0.031,0.323-0.081,0.456-0.161
		c0.134-0.075,0.243-0.186,0.323-0.329c0.081-0.146,0.12-0.331,0.12-0.564c0-0.226-0.039-0.414-0.12-0.556
		c-0.08-0.146-0.189-0.258-0.323-0.334c-0.133-0.075-0.286-0.129-0.456-0.157c-0.174-0.031-0.345-0.044-0.519-0.044h-1.178V82.454z"
		/>
	<polygon fill="#386639" points="264.854,79.462 269.121,79.462 269.121,80.324 265.749,80.324 265.749,82.35 268.889,82.35 
		268.889,83.212 265.749,83.212 265.749,85.392 269.29,85.392 269.29,86.253 264.854,86.253 	"/>
	<path fill="#386639" d="M275.723,80.928c-0.189-0.247-0.425-0.44-0.711-0.572c-0.286-0.136-0.58-0.201-0.886-0.201
		c-0.374,0-0.71,0.069-1.013,0.214c-0.305,0.142-0.561,0.34-0.777,0.592c-0.212,0.249-0.381,0.54-0.5,0.874
		c-0.116,0.337-0.174,0.695-0.174,1.078c0,0.363,0.054,0.7,0.165,1.02c0.112,0.321,0.275,0.602,0.487,0.847
		c0.211,0.242,0.47,0.432,0.773,0.573c0.307,0.144,0.652,0.213,1.038,0.213c0.379,0,0.71-0.081,0.998-0.241
		c0.287-0.157,0.529-0.385,0.728-0.67l0.757,0.584c-0.049,0.072-0.138,0.17-0.26,0.302c-0.126,0.133-0.291,0.261-0.497,0.395
		c-0.203,0.132-0.452,0.247-0.739,0.345c-0.291,0.101-0.625,0.148-1.005,0.148c-0.524,0-0.994-0.101-1.417-0.306
		c-0.418-0.204-0.774-0.475-1.072-0.808c-0.296-0.331-0.521-0.708-0.676-1.127c-0.156-0.418-0.233-0.843-0.233-1.274
		c0-0.521,0.083-1.005,0.252-1.449c0.167-0.443,0.403-0.83,0.704-1.155c0.303-0.319,0.664-0.572,1.086-0.751
		c0.426-0.179,0.891-0.268,1.402-0.268c0.435,0,0.863,0.085,1.283,0.261c0.42,0.17,0.765,0.435,1.03,0.796L275.723,80.928z"/>
	<path fill="#386639" d="M281.285,86.427c-0.502,0-0.968-0.092-1.392-0.273c-0.423-0.18-0.785-0.432-1.088-0.752
		c-0.3-0.321-0.537-0.698-0.707-1.136c-0.173-0.431-0.258-0.902-0.258-1.409c0-0.503,0.085-0.972,0.258-1.41
		c0.17-0.433,0.407-0.812,0.707-1.131c0.303-0.318,0.665-0.57,1.088-0.756c0.424-0.179,0.89-0.271,1.392-0.271
		c0.505,0,0.971,0.092,1.392,0.271c0.423,0.186,0.787,0.438,1.087,0.756c0.302,0.319,0.539,0.698,0.711,1.131
		c0.172,0.438,0.255,0.907,0.255,1.41c0,0.507-0.083,0.979-0.255,1.409c-0.172,0.438-0.409,0.814-0.711,1.136
		c-0.3,0.32-0.664,0.572-1.087,0.752C282.256,86.335,281.79,86.427,281.285,86.427 M281.285,85.561c0.379,0,0.723-0.071,1.026-0.213
		c0.307-0.145,0.566-0.337,0.786-0.579c0.216-0.245,0.385-0.532,0.505-0.858c0.116-0.33,0.177-0.679,0.177-1.054
		c0-0.368-0.061-0.72-0.177-1.047c-0.12-0.331-0.289-0.616-0.505-0.859c-0.22-0.245-0.479-0.44-0.786-0.582
		c-0.304-0.145-0.647-0.214-1.026-0.214c-0.38,0-0.72,0.069-1.026,0.214c-0.304,0.142-0.565,0.337-0.782,0.582
		c-0.218,0.243-0.388,0.528-0.507,0.859c-0.118,0.327-0.176,0.679-0.176,1.047c0,0.375,0.058,0.724,0.176,1.054
		c0.119,0.326,0.289,0.613,0.507,0.858c0.217,0.242,0.479,0.435,0.782,0.579C280.565,85.489,280.905,85.561,281.285,85.561"/>
	<polygon fill="#386639" points="286.58,79.462 287.756,79.462 291.398,85.046 291.416,85.046 291.416,79.462 292.313,79.462 
		292.313,86.253 291.174,86.253 287.492,80.671 287.475,80.671 287.475,86.253 286.58,86.253 	"/>
	<path fill="#386639" d="M297.606,86.427c-0.506,0-0.969-0.092-1.393-0.273c-0.424-0.18-0.785-0.432-1.088-0.752
		c-0.299-0.321-0.536-0.698-0.706-1.136c-0.174-0.431-0.258-0.902-0.258-1.409c0-0.503,0.084-0.972,0.258-1.41
		c0.17-0.433,0.407-0.812,0.706-1.131c0.303-0.318,0.664-0.57,1.088-0.756c0.424-0.179,0.887-0.271,1.393-0.271
		c0.503,0,0.967,0.092,1.392,0.271c0.422,0.186,0.784,0.438,1.087,0.756c0.302,0.319,0.539,0.698,0.71,1.131
		c0.17,0.438,0.256,0.907,0.256,1.41c0,0.507-0.086,0.979-0.256,1.409c-0.171,0.438-0.408,0.814-0.71,1.136
		c-0.303,0.32-0.665,0.572-1.087,0.752C298.573,86.335,298.109,86.427,297.606,86.427 M297.606,85.561
		c0.379,0,0.722-0.071,1.025-0.213c0.306-0.145,0.567-0.337,0.784-0.579c0.219-0.245,0.386-0.532,0.507-0.858
		c0.117-0.33,0.175-0.679,0.175-1.054c0-0.368-0.058-0.72-0.175-1.047c-0.121-0.331-0.288-0.616-0.507-0.859
		c-0.217-0.245-0.479-0.44-0.784-0.582c-0.304-0.145-0.646-0.214-1.025-0.214c-0.381,0-0.724,0.069-1.026,0.214
		c-0.306,0.142-0.567,0.337-0.786,0.582c-0.218,0.243-0.385,0.528-0.504,0.859c-0.117,0.327-0.178,0.679-0.178,1.047
		c0,0.375,0.061,0.724,0.178,1.054c0.119,0.326,0.286,0.613,0.504,0.858c0.219,0.242,0.48,0.435,0.786,0.579
		C296.883,85.489,297.226,85.561,297.606,85.561"/>
	<polygon fill="#386639" points="302.834,79.462 304.168,79.462 306.271,84.602 306.308,84.602 308.388,79.462 309.724,79.462 
		309.724,86.253 308.828,86.253 308.828,80.671 308.808,80.671 306.578,86.253 305.98,86.253 303.749,80.671 303.73,80.671 
		303.73,86.253 302.834,86.253 	"/>
	<path fill="#386639" d="M312.721,77.695h1.194l-1.39,1.38h-0.775L312.721,77.695z M311.919,79.462h0.893v6.791h-0.893V79.462z"/>
	<path fill="#386639" d="M317.146,79.462h0.812l2.829,6.791h-1.047l-0.661-1.68h-3.147l-0.654,1.68h-1.045L317.146,79.462z
		 M318.752,83.769l-1.233-3.117h-0.02l-1.249,3.117H318.752z"/>
</g>
</svg>
