<?xml version="1.0" encoding="utf-8"?>
<!-- Generator: Adobe Illustrator 16.0.0, SVG Export Plug-In . SVG Version: 6.00 Build 0)  -->
<!DOCTYPE svg PUBLIC "-//W3C//DTD SVG 1.1//EN" "http://www.w3.org/Graphics/SVG/1.1/DTD/svg11.dtd">
<svg version="1.1" id="Layer_1" xmlns="http://www.w3.org/2000/svg" xmlns:xlink="http://www.w3.org/1999/xlink" x="0px" y="0px"
	 width="324.827px" height="117.241px" viewBox="0 0 324.827 117.241" enable-background="new 0 0 324.827 117.241"
	 xml:space="preserve">
<g>
	<path fill="#455D2F" d="M53.27,33.153L41.716,73.679H32.34l7.781-27.355L28.577,73.679h-6.677l3.704-26.758l-7.646,26.758H8.584
		l11.552-40.525h13.877c-0.285,2.432-0.68,5.3-1.181,8.606l-1.418,10.318l7.834-18.925H53.27z"/>
	<path fill="#455D2F" d="M75.161,52.119l-2.32,8.139c-0.85,2.987-1.627,5.177-2.333,6.573c-0.704,1.393-1.728,2.694-3.077,3.903
		c-1.349,1.21-2.892,2.106-4.629,2.681c-1.735,0.576-3.626,0.865-5.663,0.865c-2.279,0-4.139-0.246-5.578-0.739
		c-1.443-0.491-2.458-1.234-3.051-2.229c-0.594-0.992-0.875-2.194-0.848-3.605c0.029-1.41,0.444-3.525,1.248-6.349l2.429-8.514
		c0.881-3.088,1.907-5.5,3.084-7.237c1.174-1.736,2.795-3.13,4.863-4.184c2.067-1.049,4.48-1.575,7.233-1.575
		c2.313,0,4.202,0.338,5.665,1.017c1.465,0.675,2.495,1.555,3.088,2.64c0.592,1.086,0.889,2.205,0.891,3.355
		C76.167,48.012,75.833,49.765,75.161,52.119 M65.576,49.62c0.483-1.7,0.696-2.772,0.634-3.215
		c-0.061-0.443-0.399-0.664-1.012-0.664c-0.615,0-1.089,0.221-1.417,0.664c-0.332,0.442-0.739,1.515-1.226,3.215l-4.271,14.987
		c-0.447,1.568-0.636,2.589-0.565,3.064c0.066,0.476,0.4,0.714,0.998,0.714c0.614,0,1.08-0.217,1.4-0.65
		c0.32-0.433,0.684-1.369,1.094-2.803L65.576,49.62z M78.006,31.424L67.69,38.215h-5.187l6.412-6.791H78.006z"/>
	<path fill="#455D2F" d="M107.399,33.153L95.845,73.679H85.547l0.688-2.417c-1.274,1.007-2.527,1.762-3.762,2.264
		c-1.231,0.503-2.444,0.752-3.636,0.752c-1.601,0-2.87-0.41-3.81-1.237c-0.937-0.825-1.421-1.782-1.442-2.868
		c-0.023-1.083,0.315-2.854,1.017-5.308l4.432-15.553c0.728-2.553,1.41-4.363,2.046-5.432c0.638-1.069,1.667-2.008,3.091-2.817
		c1.422-0.809,2.959-1.214,4.61-1.214c1.276,0,2.381,0.226,3.318,0.679c0.936,0.453,1.708,1.133,2.317,2.037l2.685-9.411H107.399z
		 M92.634,48.819c0.346-1.219,0.473-2.035,0.377-2.452c-0.094-0.416-0.459-0.625-1.092-0.625c-0.617,0-1.088,0.188-1.408,0.562
		c-0.32,0.375-0.667,1.213-1.037,2.515l-4.636,16.264c-0.386,1.352-0.537,2.239-0.452,2.665c0.083,0.427,0.417,0.636,1,0.636
		c0.668,0,1.179-0.236,1.54-0.71c0.358-0.478,0.8-1.64,1.329-3.492L92.634,48.819z"/>
	<path fill="#455D2F" d="M132.583,40.447l-9.473,33.231h-10.48l0.97-2.768c-1.037,1.123-2.157,1.965-3.363,2.525
		c-1.208,0.561-2.492,0.844-3.856,0.844c-1.548,0-2.756-0.271-3.627-0.803c-0.868-0.535-1.42-1.244-1.653-2.129
		c-0.232-0.884-0.271-1.806-0.117-2.767c0.155-0.958,0.638-2.868,1.452-5.721l6.389-22.414h10.298l-6.443,22.606
		c-0.737,2.587-1.094,4.121-1.071,4.604c0.025,0.485,0.398,0.728,1.119,0.728c0.77,0,1.299-0.25,1.587-0.751
		c0.288-0.5,0.821-2.11,1.597-4.833l6.373-22.354H132.583z"/>
	<polygon fill="#455D2F" points="148.976,33.153 137.423,73.679 126.805,73.679 138.357,33.153 	"/>
	<path fill="#455D2F" d="M170.548,52.119l-2.32,8.139c-0.851,2.987-1.63,5.179-2.334,6.573c-0.705,1.393-1.729,2.696-3.078,3.904
		c-1.346,1.209-2.889,2.105-4.626,2.68c-1.737,0.576-3.625,0.862-5.665,0.862c-2.279,0-4.138-0.246-5.578-0.738
		c-1.442-0.49-2.457-1.233-3.051-2.228c-0.591-0.992-0.875-2.194-0.847-3.605c0.028-1.41,0.446-3.528,1.25-6.349l2.428-8.516
		c0.879-3.086,1.908-5.499,3.083-7.235c1.174-1.736,2.797-3.13,4.865-4.182c2.066-1.051,4.478-1.577,7.232-1.577
		c2.311,0,4.201,0.338,5.666,1.017c1.464,0.675,2.495,1.553,3.084,2.64c0.593,1.086,0.889,2.205,0.892,3.355
		C171.552,48.012,171.218,49.765,170.548,52.119 M160.961,49.62c0.485-1.702,0.697-2.774,0.636-3.215
		c-0.063-0.44-0.401-0.664-1.016-0.664c-0.613,0-1.086,0.224-1.415,0.664c-0.33,0.44-0.74,1.513-1.224,3.215l-4.271,14.987
		c-0.447,1.568-0.636,2.589-0.568,3.064c0.07,0.478,0.401,0.714,1,0.714c0.613,0,1.079-0.217,1.4-0.65
		c0.319-0.435,0.685-1.369,1.093-2.803L160.961,49.62z"/>
	<path fill="#DA8F22" d="M174.496,73.427c-1.039-0.643-1.787-1.395-2.255-2.251c0.735,3.157,1.739,6.209,2.99,9.139l6.556-5.294
		c-0.135,0.003-0.27,0.01-0.409,0.01C178.514,75.03,176.217,74.495,174.496,73.427"/>
	<path fill="#DA8F22" d="M216.083,46.227c-0.614,0-1.089,0.221-1.417,0.664c-0.332,0.442-0.739,1.513-1.224,3.214l-4.271,14.988
		c-0.447,1.566-0.638,2.589-0.569,3.064c0.071,0.475,0.403,0.714,1.001,0.714c0.613,0,1.08-0.218,1.399-0.651
		c0.321-0.432,0.685-1.367,1.094-2.802l4.363-15.313c0.486-1.701,0.698-2.771,0.637-3.214
		C217.036,46.447,216.696,46.227,216.083,46.227"/>
	<path fill="#DA8F22" d="M250.841,61.348c-0.493,0.802-0.952,1.951-1.379,3.447c-0.489,1.718-0.688,2.827-0.605,3.325
		c0.091,0.499,0.473,0.749,1.153,0.749c0.649,0,1.126-0.194,1.432-0.586c0.307-0.392,0.698-1.42,1.172-3.087l1.945-6.821
		C252.571,59.56,251.332,60.55,250.841,61.348"/>
	<path fill="#DA8F22" d="M248.314,73.682h2.168l0.708-2.487C250.312,72.272,249.351,73.093,248.314,73.682"/>
	<path fill="#DA8F22" d="M286.618,52.02c-1.892,0-3.351,0.251-4.377,0.752c-1.031,0.501-1.774,1.199-2.234,2.094
		c-0.458,0.894-1.146,2.95-2.067,6.174l-3.604,12.643h1.455l-52.088,41.392c1.708,0.151,3.438,0.234,5.187,0.24l51.554-41.632
		l4.814-0.082c1.341-4.772,2.067-9.791,2.067-14.979c0-2.494-0.166-4.951-0.489-7.36L286.618,52.02z"/>
	<path fill="#DA8F22" d="M283.672,40.931l-1.635,4.373c0.912-1.199,1.863-2.179,2.851-2.944
		c-7.186-23.384-29.454-40.432-55.82-40.432c-32.177,0-58.261,25.384-58.261,56.695c0,3.29,0.291,6.514,0.843,9.65
		c0.039-1.547,0.397-3.532,1.096-5.97l0.756-2.659h9.977l-1.405,4.939c-0.438,1.523-0.576,2.5-0.422,2.934
		c0.15,0.435,0.582,0.652,1.285,0.652c0.705,0,1.31-0.274,1.809-0.828c0.502-0.552,0.909-1.37,1.219-2.457
		c0.682-2.392,0.799-3.956,0.35-4.69c-0.465-0.738-1.782-1.962-3.954-3.68c-2.168-1.731-3.573-2.988-4.209-3.777
		c-0.646-0.782-1.049-1.87-1.22-3.256c-0.173-1.385,0.049-3.155,0.662-5.309c0.886-3.107,1.935-5.379,3.151-6.815
		c1.216-1.438,2.835-2.56,4.864-3.37c2.03-0.809,4.316-1.215,6.858-1.215c2.781,0,5.026,0.443,6.731,1.327
		c1.707,0.885,2.687,2.002,2.939,3.343c0.253,1.344-0.079,3.627-1.001,6.848l-0.455,1.603h-9.978l0.858-3.004
		c0.398-1.403,0.526-2.297,0.386-2.68s-0.502-0.575-1.085-0.575c-0.634,0-1.188,0.259-1.658,0.775
		c-0.475,0.518-0.861,1.306-1.159,2.357c-0.389,1.354-0.493,2.376-0.318,3.06c0.155,0.685,0.93,1.511,2.312,2.479
		c3.963,2.785,6.309,5.072,7.035,6.86c0.727,1.784,0.523,4.668-0.609,8.642c-0.823,2.89-1.776,5.021-2.853,6.39
		c-1.078,1.367-2.733,2.517-4.965,3.444c-0.036,0.014-0.071,0.027-0.107,0.041h10.872L179.96,89.139
		c0.251,0.381,0.504,0.76,0.764,1.134l20.547-16.591h0.337c-1.002-0.475-1.741-1.099-2.212-1.885
		c-0.592-0.993-0.874-2.196-0.848-3.607c0.028-1.409,0.448-3.526,1.251-6.346l2.426-8.516c0.881-3.088,1.909-5.5,3.083-7.237
		c1.175-1.735,2.8-3.129,4.867-4.182c2.066-1.052,4.478-1.577,7.233-1.577c2.31,0,4.196,0.337,5.661,1.012
		c1.468,0.679,2.496,1.558,3.088,2.645c0.591,1.085,0.888,2.203,0.894,3.354c0,1.15-0.332,2.906-1.002,5.261l-2.322,8.139
		c-0.852,2.987-1.628,5.179-2.33,6.571c-0.705,1.396-1.733,2.695-3.079,3.906c-1.198,1.076-2.56,1.886-4.064,2.462h2.985
		l-30.313,24.087c0.487,0.494,0.984,0.979,1.489,1.457l31.638-25.544h3.38l11.415-40.042h10.62l-11.42,40.042h1.97l-39.893,31.701
		c0.807,0.54,1.625,1.062,2.464,1.56l41.188-33.261h0.432c-0.195-0.126-0.384-0.261-0.566-0.406
		c-1.221-0.994-1.353-3.164-0.399-6.52l0.78-2.727c0.709-2.486,1.589-4.178,2.644-5.081c1.059-0.9,3.338-1.952,6.842-3.153
		c3.752-1.299,5.813-2.177,6.179-2.627c0.366-0.45,0.748-1.369,1.143-2.758c0.497-1.735,0.687-2.867,0.572-3.395
		c-0.113-0.525-0.479-0.789-1.088-0.789c-0.7,0-1.195,0.223-1.491,0.664c-0.297,0.44-0.708,1.59-1.238,3.444l-0.993,3.482h-9.659
		l0.635-2.23c0.733-2.574,1.603-4.556,2.604-5.952c1.002-1.396,2.564-2.627,4.688-3.697s4.64-1.605,7.545-1.605
		c3.481,0,5.938,0.604,7.359,1.814c1.424,1.212,2.061,2.697,1.915,4.458c-0.144,1.763-0.997,5.389-2.564,10.88l-4.619,16.197h3.545
		l9.335-32.751H283.672z"/>
	<path fill="#DA8F22" d="M208.113,111.533c1.114,0.419,2.249,0.806,3.399,1.158l47.714-38.527h-4.09L208.113,111.533z"/>
	<path fill="#DA8F22" d="M279.074,87.704l-31.646,24.735C260.773,108.13,271.97,99.246,279.074,87.704"/>
	<path fill="#FFFFFF" d="M181.786,75.021c2.415-0.045,4.668-0.488,6.753-1.339h-5.094L181.786,75.021z"/>
	<path fill="#FFFFFF" d="M171.678,69.343c0.063,0.658,0.253,1.267,0.563,1.833c-0.223-0.96-0.417-1.926-0.589-2.899
		C171.642,68.653,171.648,69.017,171.678,69.343"/>
	<path fill="#FFFFFF" d="M202.445,74.024c1.439,0.492,3.3,0.738,5.578,0.738c2.042,0,3.928-0.287,5.665-0.861
		c0.195-0.065,0.377-0.149,0.564-0.22h-12.649C201.868,73.807,202.145,73.922,202.445,74.024"/>
	<polygon fill="#FFFFFF" points="223.295,74.164 233.911,74.164 234.047,73.682 223.432,73.682 	"/>
	<path fill="#FFFFFF" d="M244.18,74.763c1.377,0,2.646-0.296,3.811-0.893c0.11-0.054,0.215-0.128,0.324-0.188h-8.106
		C241.322,74.402,242.646,74.763,244.18,74.763"/>
	<polygon fill="#FFFFFF" points="250.481,73.682 250.342,74.164 255.137,74.164 255.742,73.682 	"/>
	<polygon fill="#FFFFFF" points="259.227,74.164 260.356,74.164 260.493,73.682 259.822,73.682 	"/>
	<polygon fill="#FFFFFF" points="263.9,74.164 274.198,74.164 274.336,73.682 264.038,73.682 	"/>
	<path fill="#455D2F" d="M292.246,50.38l2.823-9.767h1.649l-0.467,1.614c0.669-0.694,1.254-1.176,1.758-1.441
		c0.506-0.264,1.035-0.397,1.602-0.397c0.601,0,1.088,0.161,1.463,0.482c0.381,0.321,0.61,0.771,0.688,1.345
		c0.543-0.611,1.096-1.07,1.662-1.373c0.567-0.303,1.15-0.454,1.751-0.454c0.805,0,1.395,0.192,1.768,0.58
		c0.374,0.39,0.528,0.935,0.474,1.637c-0.024,0.3-0.135,0.797-0.332,1.488l-1.824,6.284h-1.65l1.863-6.452
		c0.159-0.526,0.245-0.904,0.266-1.132c0.025-0.317-0.056-0.569-0.239-0.752c-0.187-0.183-0.462-0.276-0.825-0.276
		c-0.491,0-1.005,0.15-1.537,0.449c-0.536,0.302-0.963,0.696-1.283,1.184c-0.323,0.485-0.63,1.235-0.924,2.246l-1.372,4.735h-1.649
		l1.902-6.593c0.136-0.447,0.211-0.764,0.228-0.955c0.022-0.317-0.053-0.575-0.234-0.771c-0.183-0.197-0.428-0.295-0.743-0.295
		c-0.468,0-0.967,0.15-1.507,0.45c-0.534,0.303-0.982,0.721-1.349,1.256c-0.366,0.537-0.69,1.301-0.976,2.295l-1.337,4.613H292.246z
		"/>
	<path fill="#455D2F" d="M308.259,50.378l2.815-9.768h1.458l-0.578,1.986c0.562-0.752,1.096-1.308,1.602-1.668
		c0.508-0.362,1.006-0.543,1.504-0.543c0.33,0,0.722,0.12,1.184,0.362l-0.799,1.549c-0.269-0.215-0.572-0.327-0.912-0.327
		c-0.576,0-1.197,0.327-1.859,0.979c-0.664,0.652-1.24,1.823-1.728,3.515l-1.12,3.915H308.259z"/>
</g>
</svg>
